<svg width="257" height="257" viewBox="0 0 257 257" fill="none" xmlns="http://www.w3.org/2000/svg">
<rect width="256" height="256" transform="translate(0.804199 0.103699)" fill="#EEEEEE" fill-opacity="0.58"/>
<g filter="url(#filter0_d_1_19)">
<path d="M207.898 162.104L48.6323 162.986C48.6323 162.986 43.2961 159.367 39.3042 156.368C35.4091 153.443 35.8042 147.104 35.8042 147.104H220.804C220.804 147.104 221.903 153.348 217.804 156.368C213.826 159.3 207.898 162.104 207.898 162.104Z" fill="url(#paint0_linear_1_19)" shape-rendering="crispEdges"/>
</g>
<rect x="35.8042" y="95.1037" width="185" height="53" rx="2" fill="white"/>
<rect x="42.8042" y="102.104" width="18" height="8" rx="2" fill="#081422"/>
<rect x="35.8042" y="141.104" width="185" height="7" fill="url(#paint1_linear_1_19)"/>
<rect x="35.8042" y="97.1037" width="185" height="1" fill="url(#paint2_linear_1_19)"/>
<rect opacity="0.2" x="35.8042" y="145.104" width="185" height="1" fill="#6E6E6E"/>
<path d="M35.8042 148.139H220.938V149.977C220.938 149.977 146.877 153.635 120.945 153.398C96.9277 153.179 35.8042 149.977 35.8042 149.977V148.139Z" fill="#151515"/>
<defs>
<filter id="filter0_d_1_19" x="29.793" y="146.104" width="205.145" height="35.8824" filterUnits="userSpaceOnUse" color-interpolation-filters="sRGB">
<feFlood flood-opacity="0" result="BackgroundImageFix"/>
<feColorMatrix in="SourceAlpha" type="matrix" values="0 0 0 0 0 0 0 0 0 0 0 0 0 0 0 0 0 0 127 0" result="hardAlpha"/>
<feOffset dx="4" dy="9"/>
<feGaussianBlur stdDeviation="5"/>
<feComposite in2="hardAlpha" operator="out"/>
<feColorMatrix type="matrix" values="0 0 0 0 0 0 0 0 0 0 0 0 0 0 0 0 0 0 0.1 0"/>
<feBlend mode="normal" in2="BackgroundImageFix" result="effect1_dropShadow_1_19"/>
<feBlend mode="normal" in="SourceGraphic" in2="effect1_dropShadow_1_19" result="shape"/>
</filter>
<linearGradient id="paint0_linear_1_19" x1="128.804" y1="162.104" x2="128.804" y2="148.258" gradientUnits="userSpaceOnUse">
<stop stop-color="#CACACA"/>
<stop offset="1" stop-color="#8A8A8A" stop-opacity="0"/>
</linearGradient>
<linearGradient id="paint1_linear_1_19" x1="128.304" y1="141.104" x2="128.304" y2="148.104" gradientUnits="userSpaceOnUse">
<stop stop-color="#E7E7E7"/>
<stop offset="1" stop-color="white" stop-opacity="0"/>
</linearGradient>
<linearGradient id="paint2_linear_1_19" x1="35.8042" y1="97.1037" x2="236.804" y2="98.1037" gradientUnits="userSpaceOnUse">
<stop stop-color="#E7E7E7"/>
<stop offset="0.520833" stop-color="white" stop-opacity="0"/>
<stop offset="0.984375" stop-color="#E9E9E9" stop-opacity="0.901042"/>
</linearGradient>
</defs>
</svg>
