<svg width="257" height="257" viewBox="0 0 257 257" fill="none" xmlns="http://www.w3.org/2000/svg">
<rect width="256" height="256" transform="translate(0.804199 0.103699)" fill="#EEEEEE"/>
<path d="M125.804 43.0963C125.804 40.429 131.804 40.45 131.804 43.0963C131.804 44.4623 131.804 99.1037 131.804 99.1037C131.804 99.1037 130.234 98.1268 128.804 98.1268C127.374 98.1268 125.804 99.1037 125.804 99.1037C125.804 99.1037 125.804 44.4624 125.804 43.0963Z" fill="#414141"/>
<path d="M125.804 43.0963C125.804 40.429 131.804 40.45 131.804 43.0963C131.804 44.4623 131.804 99.1037 131.804 99.1037C131.804 99.1037 130.234 98.1268 128.804 98.1268C127.374 98.1268 125.804 99.1037 125.804 99.1037C125.804 99.1037 125.804 44.4624 125.804 43.0963Z" fill="url(#paint0_linear_1_9)"/>
<path d="M136.704 138.987C136.683 138.983 136.659 138.98 136.632 138.976C136.51 138.957 136.331 138.93 136.104 138.899C135.652 138.835 135.008 138.75 134.245 138.665C132.72 138.495 130.716 138.325 128.804 138.325C126.892 138.325 124.888 138.495 123.363 138.665C122.6 138.75 121.957 138.835 121.504 138.899C121.278 138.93 121.099 138.957 120.976 138.976C120.95 138.98 120.926 138.983 120.904 138.987V100.254C120.939 100.239 120.989 100.218 121.053 100.191C121.188 100.134 121.385 100.053 121.632 99.9557C122.126 99.7608 122.818 99.5009 123.612 99.2411C125.203 98.7205 127.19 98.2037 128.804 98.2037C130.418 98.2037 132.406 98.7205 133.996 99.2411C134.79 99.5009 135.482 99.7608 135.976 99.9557C136.223 100.053 136.42 100.134 136.556 100.191C136.619 100.218 136.669 100.239 136.704 100.254V138.987Z" fill="#414141"/>
<path d="M136.704 138.987C136.683 138.983 136.659 138.98 136.632 138.976C136.51 138.957 136.331 138.93 136.104 138.899C135.652 138.835 135.008 138.75 134.245 138.665C132.72 138.495 130.716 138.325 128.804 138.325C126.892 138.325 124.888 138.495 123.363 138.665C122.6 138.75 121.957 138.835 121.504 138.899C121.278 138.93 121.099 138.957 120.976 138.976C120.95 138.98 120.926 138.983 120.904 138.987V100.254C120.939 100.239 120.989 100.218 121.053 100.191C121.188 100.134 121.385 100.053 121.632 99.9557C122.126 99.7608 122.818 99.5009 123.612 99.2411C125.203 98.7205 127.19 98.2037 128.804 98.2037C130.418 98.2037 132.406 98.7205 133.996 99.2411C134.79 99.5009 135.482 99.7608 135.976 99.9557C136.223 100.053 136.42 100.134 136.556 100.191C136.619 100.218 136.669 100.239 136.704 100.254V138.987Z" fill="url(#paint1_linear_1_9)"/>
<path d="M136.704 138.987C136.683 138.983 136.659 138.98 136.632 138.976C136.51 138.957 136.331 138.93 136.104 138.899C135.652 138.835 135.008 138.75 134.245 138.665C132.72 138.495 130.716 138.325 128.804 138.325C126.892 138.325 124.888 138.495 123.363 138.665C122.6 138.75 121.957 138.835 121.504 138.899C121.278 138.93 121.099 138.957 120.976 138.976C120.95 138.98 120.926 138.983 120.904 138.987V100.254C120.939 100.239 120.989 100.218 121.053 100.191C121.188 100.134 121.385 100.053 121.632 99.9557C122.126 99.7608 122.818 99.5009 123.612 99.2411C125.203 98.7205 127.19 98.2037 128.804 98.2037C130.418 98.2037 132.406 98.7205 133.996 99.2411C134.79 99.5009 135.482 99.7608 135.976 99.9557C136.223 100.053 136.42 100.134 136.556 100.191C136.619 100.218 136.669 100.239 136.704 100.254V138.987Z" stroke="white" stroke-width="0.2"/>
<path d="M139.704 140.977C139.664 140.967 139.615 140.955 139.558 140.942C139.382 140.901 139.125 140.842 138.799 140.772C138.148 140.631 137.223 140.443 136.127 140.255C133.934 139.88 131.053 139.504 128.304 139.504C125.555 139.504 122.674 139.88 120.482 140.255C119.385 140.443 118.46 140.631 117.809 140.772C117.484 140.842 117.226 140.901 117.051 140.942C116.993 140.955 116.944 140.967 116.904 140.977V136.911L116.906 136.91C116.957 136.898 117.032 136.879 117.13 136.855C117.325 136.808 117.608 136.741 117.964 136.66C118.675 136.498 119.671 136.282 120.814 136.066C123.102 135.634 125.969 135.204 128.304 135.204C130.639 135.204 133.506 135.634 135.794 136.066C136.937 136.282 137.934 136.498 138.644 136.66C139 136.741 139.284 136.808 139.479 136.855C139.576 136.879 139.652 136.898 139.702 136.91L139.704 136.911V140.977Z" fill="#414141"/>
<path d="M139.704 140.977C139.664 140.967 139.615 140.955 139.558 140.942C139.382 140.901 139.125 140.842 138.799 140.772C138.148 140.631 137.223 140.443 136.127 140.255C133.934 139.88 131.053 139.504 128.304 139.504C125.555 139.504 122.674 139.88 120.482 140.255C119.385 140.443 118.46 140.631 117.809 140.772C117.484 140.842 117.226 140.901 117.051 140.942C116.993 140.955 116.944 140.967 116.904 140.977V136.911L116.906 136.91C116.957 136.898 117.032 136.879 117.13 136.855C117.325 136.808 117.608 136.741 117.964 136.66C118.675 136.498 119.671 136.282 120.814 136.066C123.102 135.634 125.969 135.204 128.304 135.204C130.639 135.204 133.506 135.634 135.794 136.066C136.937 136.282 137.934 136.498 138.644 136.66C139 136.741 139.284 136.808 139.479 136.855C139.576 136.879 139.652 136.898 139.702 136.91L139.704 136.911V140.977Z" fill="url(#paint2_linear_1_9)"/>
<path d="M139.704 140.977C139.664 140.967 139.615 140.955 139.558 140.942C139.382 140.901 139.125 140.842 138.799 140.772C138.148 140.631 137.223 140.443 136.127 140.255C133.934 139.88 131.053 139.504 128.304 139.504C125.555 139.504 122.674 139.88 120.482 140.255C119.385 140.443 118.46 140.631 117.809 140.772C117.484 140.842 117.226 140.901 117.051 140.942C116.993 140.955 116.944 140.967 116.904 140.977V136.911L116.906 136.91C116.957 136.898 117.032 136.879 117.13 136.855C117.325 136.808 117.608 136.741 117.964 136.66C118.675 136.498 119.671 136.282 120.814 136.066C123.102 135.634 125.969 135.204 128.304 135.204C130.639 135.204 133.506 135.634 135.794 136.066C136.937 136.282 137.934 136.498 138.644 136.66C139 136.741 139.284 136.808 139.479 136.855C139.576 136.879 139.652 136.898 139.702 136.91L139.704 136.911V140.977Z" stroke="white" stroke-width="0.2"/>
<path d="M189.804 187.104L143.338 141.771C143.338 141.771 134.271 139.056 128.304 139.104C122.6 139.151 113.954 141.771 113.954 141.771L66.8042 187.104C66.8042 187.104 104.167 181.104 128.304 181.104C152.441 181.104 189.804 187.104 189.804 187.104Z" fill="#414141"/>
<path d="M189.804 187.104L143.338 141.771C143.338 141.771 134.271 139.056 128.304 139.104C122.6 139.151 113.954 141.771 113.954 141.771L66.8042 187.104C66.8042 187.104 104.167 181.104 128.304 181.104C152.441 181.104 189.804 187.104 189.804 187.104Z" fill="url(#paint3_linear_1_9)"/>
<path d="M189.804 187.104L143.338 141.771C143.338 141.771 134.271 139.056 128.304 139.104C122.6 139.151 113.954 141.771 113.954 141.771L66.8042 187.104C66.8042 187.104 104.167 181.104 128.304 181.104C152.441 181.104 189.804 187.104 189.804 187.104Z" fill="url(#paint4_linear_1_9)"/>
<path d="M189.804 187.104L143.338 141.771C143.338 141.771 134.271 139.056 128.304 139.104C122.6 139.151 113.954 141.771 113.954 141.771L66.8042 187.104C66.8042 187.104 104.167 181.104 128.304 181.104C152.441 181.104 189.804 187.104 189.804 187.104Z" fill="url(#paint5_linear_1_9)"/>
<path d="M189.804 187.104L143.338 141.771C143.338 141.771 134.271 139.056 128.304 139.104C122.6 139.151 113.954 141.771 113.954 141.771L66.8042 187.104C66.8042 187.104 104.167 181.104 128.304 181.104C152.441 181.104 189.804 187.104 189.804 187.104Z" fill="url(#paint6_linear_1_9)"/>
<path d="M189.304 187.104C189.304 187.186 189.27 187.312 189.114 187.487C188.955 187.664 188.695 187.864 188.312 188.077C187.546 188.504 186.383 188.931 184.841 189.346C181.765 190.173 177.291 190.924 171.735 191.557C160.629 192.821 145.274 193.604 128.304 193.604C111.334 193.604 95.979 192.821 84.8737 191.557C79.3177 190.924 74.8433 190.173 71.7671 189.346C70.225 188.931 69.0629 188.504 68.2967 188.077C67.9133 187.864 67.6535 187.664 67.4948 187.487C67.3387 187.312 67.3042 187.186 67.3042 187.104C67.3042 187.021 67.3387 186.896 67.4948 186.721C67.6535 186.543 67.9133 186.343 68.2967 186.13C69.0629 185.704 70.225 185.277 71.7671 184.862C74.8433 184.034 79.3177 183.283 84.8737 182.651C95.979 181.387 111.334 180.604 128.304 180.604C145.274 180.604 160.629 181.387 171.735 182.651C177.291 183.283 181.765 184.034 184.841 184.862C186.383 185.277 187.546 185.704 188.312 186.13C188.695 186.343 188.955 186.543 189.114 186.721C189.27 186.896 189.304 187.021 189.304 187.104Z" fill="#D9D9D9" stroke="url(#paint7_linear_1_9)"/>
<path d="M185.304 183.604C185.304 183.604 169.804 180.104 127.304 180.104C84.8042 180.104 69.3042 184.104 69.3042 184.104" stroke="url(#paint8_linear_1_9)"/>
<path fill-rule="evenodd" clip-rule="evenodd" d="M116.282 182.022C120.606 181.761 124.799 181.606 128.654 181.606C132.51 181.606 136.703 181.761 141.027 182.022C141.972 183.895 142.505 186.012 142.505 188.254C142.505 195.903 136.304 202.104 128.654 202.104C121.005 202.104 114.804 195.903 114.804 188.254C114.804 186.012 115.337 183.895 116.282 182.022Z" fill="white"/>
<defs>
<linearGradient id="paint0_linear_1_9" x1="125.992" y1="65.8598" x2="131.804" y2="65.8598" gradientUnits="userSpaceOnUse">
<stop stop-color="#6B6B6B"/>
<stop offset="0.0416667" stop-color="#AEAEAE" stop-opacity="0.921875"/>
<stop offset="0.0885417" stop-color="#646161"/>
<stop offset="0.261564" stop-color="#3F3F3F"/>
<stop offset="0.555235" stop-color="#4F4F4F"/>
<stop offset="0.88427" stop-color="#B1B1B1"/>
<stop offset="0.941849" stop-color="#D5D5D5"/>
<stop offset="0.980261" stop-color="#ABABAB"/>
</linearGradient>
<linearGradient id="paint1_linear_1_9" x1="121.304" y1="115.604" x2="136.804" y2="115.604" gradientUnits="userSpaceOnUse">
<stop stop-color="#6B6B6B"/>
<stop offset="0.0416667" stop-color="#AEAEAE" stop-opacity="0.921875"/>
<stop offset="0.0885417" stop-color="#646161"/>
<stop offset="0.261564" stop-color="#282828"/>
<stop offset="0.555235" stop-color="#3E3E3E"/>
<stop offset="0.88427" stop-color="#B1B1B1"/>
<stop offset="0.941849" stop-color="#D5D5D5"/>
<stop offset="0.980261" stop-color="#ABABAB"/>
</linearGradient>
<linearGradient id="paint2_linear_1_9" x1="117.523" y1="137.665" x2="139.804" y2="137.665" gradientUnits="userSpaceOnUse">
<stop stop-color="#6B6B6B"/>
<stop offset="0.0416667" stop-color="#AEAEAE" stop-opacity="0.921875"/>
<stop offset="0.0885417" stop-color="#646161"/>
<stop offset="0.261564" stop-color="#232323"/>
<stop offset="0.555235" stop-color="#4F4F4F"/>
<stop offset="0.88427" stop-color="#B1B1B1"/>
<stop offset="0.941849" stop-color="#D5D5D5"/>
<stop offset="0.980261" stop-color="#ABABAB"/>
</linearGradient>
<linearGradient id="paint3_linear_1_9" x1="130.304" y1="179.104" x2="130.804" y2="139.104" gradientUnits="userSpaceOnUse">
<stop stop-color="#0D0D0D"/>
<stop offset="0.439813" stop-color="#1C1C1C" stop-opacity="0.75"/>
<stop offset="1" stop-color="#585858" stop-opacity="0"/>
</linearGradient>
<linearGradient id="paint4_linear_1_9" x1="95.8042" y1="142.104" x2="131.804" y2="177.104" gradientUnits="userSpaceOnUse">
<stop stop-color="#ACACAC"/>
<stop offset="0.227172" stop-color="#AEAEAE" stop-opacity="0.921875"/>
<stop offset="0.410458" stop-color="#646161"/>
<stop offset="0.513071" stop-color="#3F3F3F"/>
<stop offset="0.803061" stop-color="#4F4F4F" stop-opacity="0.29"/>
</linearGradient>
<linearGradient id="paint5_linear_1_9" x1="162.304" y1="150.604" x2="147.804" y2="166.104" gradientUnits="userSpaceOnUse">
<stop offset="0.227172" stop-color="#AEAEAE" stop-opacity="0.921875"/>
<stop offset="0.560864" stop-color="#575757"/>
<stop offset="0.803061" stop-color="#4F4F4F" stop-opacity="0"/>
</linearGradient>
<linearGradient id="paint6_linear_1_9" x1="128.304" y1="140.604" x2="127.804" y2="178.604" gradientUnits="userSpaceOnUse">
<stop/>
<stop offset="1" stop-opacity="0"/>
</linearGradient>
<linearGradient id="paint7_linear_1_9" x1="128.304" y1="180.104" x2="128.304" y2="194.104" gradientUnits="userSpaceOnUse">
<stop/>
<stop offset="1" stop-color="#272727" stop-opacity="0"/>
</linearGradient>
<linearGradient id="paint8_linear_1_9" x1="73.3042" y1="183.103" x2="183.804" y2="181.103" gradientUnits="userSpaceOnUse">
<stop offset="0.015625" stop-color="white" stop-opacity="0"/>
<stop offset="0.0885417" stop-color="white"/>
<stop offset="0.492774" stop-color="#1F1F1F"/>
<stop offset="0.901042" stop-color="white"/>
<stop offset="0.979167" stop-color="white" stop-opacity="0"/>
</linearGradient>
</defs>
</svg>
