<svg width="266" height="218" viewBox="0 0 266 218" fill="none" xmlns="http://www.w3.org/2000/svg">
<path d="M95.3015 158.792C96.15 158.368 102.726 153.312 105.908 150.838M183.862 202.807L178.559 212.353M188.635 203.338C189.059 203.762 188.812 209.171 188.635 211.823M211.438 78.7165L213.559 76.0649M213.559 82.9589C213.983 82.5346 216.211 82.075 217.271 81.8983" stroke="#949494" stroke-width="2.8" stroke-linejoin="round"/>
<path d="M213.029 203.338L215.15 201.747C216.485 200.745 217.271 199.174 217.271 197.504L217.271 81.4687C217.271 79.4574 216.134 77.6192 214.333 76.7222L67.8244 3.723C66.1235 2.8755 64.0991 3.00294 62.5179 4.05706L60.3016 5.53456M100.605 147.692L93.5646 153.033C91.6814 154.462 91.9584 157.372 94.0771 158.42L184.793 203.285C186.218 203.99 187.884 204.018 189.332 203.362L199.771 198.634M199.771 198.634L205.074 201.358M199.771 198.634L97.9531 146.33M205.074 201.358L209.454 203.608C211.571 204.696 214.09 203.158 214.09 200.778L214.09 83.5848C214.09 81.5762 212.955 79.7399 211.158 78.8416L63.8458 5.18546C61.7302 4.12766 59.241 5.66606 59.241 8.03137L59.2411 123.206C59.2411 125.194 60.3528 127.015 62.121 127.923L97.9531 146.33M205.074 201.358L185.874 213.409C184.297 214.399 182.316 214.489 180.655 213.646L82.3618 163.758C80.26 162.691 80.0072 159.79 81.8927 158.375L97.9531 146.33" stroke="black" stroke-width="2.8"/>
<path d="M63.842 11.6429C63.839 11.1041 64.4064 10.7524 64.8876 10.9948L206.3 82.2095C207.616 82.8726 208.447 84.2211 208.447 85.6954L208.447 196.141C208.447 196.681 207.875 197.03 207.395 196.781L66.555 123.957C65.2656 123.291 64.4527 121.963 64.4447 120.512L63.842 11.6429Z" stroke="#949494" stroke-width="2.8"/>
</svg>
